<svg width="180" height="180" viewBox="0 0 180 180" fill="none" xmlns="http://www.w3.org/2000/svg">
<path d="M68.7342 65.0439H87.885L109.362 125H91.8221L88.8692 115.873H66.4078L63.4545 125H46.6309L68.7342 65.0439ZM84.2158 101.644L77.6828 81.5093L71.1505 101.644H84.2158Z" fill="#FA0F00"/>
<path d="M113.623 68.9809C113.623 64.6857 116.934 61.9116 121.946 61.9116C126.868 61.9116 130 64.7751 130 68.9809C130 73.2765 126.868 76.2298 121.946 76.2298C116.755 76.2298 113.623 73.366 113.623 68.9809ZM114.071 78.288H129.731V125H114.071V78.288Z" fill="#FA0F00"/>
<path d="M42.2073 175C29.8538 174.824 19.9417 164.717 20.0003 152.466V27.5C19.9417 15.2832 29.8538 5.1758 42.0999 5H115.02C120.254 5 125.352 7.1289 129.033 10.8447L154.219 36.3965C157.959 40.1563 160.02 45.1807 160 50.5225V152.5C160.059 164.717 150.147 174.824 137.91 175H42.2073ZM42.2073 20C38.262 20.0586 34.9807 23.4082 35.0003 27.4658V152.5C34.9808 156.592 38.262 159.941 42.3148 160H137.803C141.739 159.941 145.02 156.592 145 152.534V50.498C145 49.1406 144.493 47.8857 143.555 46.9482L118.36 21.3818C117.481 20.5029 115.821 20.039 115 20H42.2073Z" fill="#222222"/>
</svg>
