<svg width="180" height="180" viewBox="0 0 180 180" fill="none" xmlns="http://www.w3.org/2000/svg">
<path d="M45.9571 105.752C45.9571 105.454 45.9962 105.303 46.2501 105.249C48.0079 105.2 52.9103 105.103 56.4649 105.103C67.129 105.103 68.8672 110.557 68.8672 113.862C68.8672 117.261 67.0703 119.316 65.8203 120.215C67.6758 121.167 70.4687 123.32 70.4687 127.925C70.4687 134.028 65.1757 138.081 56.5625 138.081C51.6992 138.081 48.1445 138.032 46.3086 137.983C46.0547 137.935 45.957 137.783 45.957 137.534L45.9571 105.752ZM52.754 118.013H56.1524C57.8712 118.013 59.8633 118.164 60.6251 118.267C61.5235 117.466 62.1095 116.514 62.1095 114.858C62.1095 112.31 60.215 110.957 56.4064 110.957C54.8634 110.957 53.8673 111.006 52.7541 111.059L52.754 118.013ZM52.754 132.178C53.8087 132.226 54.9024 132.28 56.4063 132.28C60.7227 132.329 63.2618 130.928 63.2618 128.022C63.2618 126.323 62.5587 124.868 60.2149 124.272C59.4141 124.067 58.3204 123.97 57.0704 123.97H52.754V132.178Z" fill="#FA0F00"/>
<path d="M76.2463 105.2H85.4651C85.8167 105.2 85.9143 105.303 86.012 105.552C87.4182 110.606 90.9729 123.872 91.9104 128.726H91.969C92.9651 124.419 97.1252 110.757 98.6292 105.601C98.6683 105.352 98.7659 105.2 99.0198 105.2H108.024C108.336 105.2 108.434 105.249 108.434 105.552L109.684 137.534C109.742 137.832 109.528 137.983 109.274 137.983H102.828C102.575 137.983 102.418 137.935 102.418 137.632C102.282 127.324 102.321 113.408 102.418 110.205H102.379C101.266 115.161 96.8713 130.776 94.9182 137.583C94.8205 137.886 94.6643 137.983 94.4104 137.983H88.6682C88.3166 137.983 88.219 137.935 88.1213 137.583C86.2658 130.327 82.8479 116.714 81.4025 110.107H81.3634C81.3048 115.513 81.1095 127.124 80.6603 137.583C80.6603 137.935 80.5626 137.983 80.2501 137.983H74.4493C74.1563 137.983 74.0001 137.935 74.0391 137.583L75.7969 105.503C75.8555 105.2 75.9924 105.2 76.2463 105.2Z" fill="#FA0F00"/>
<path d="M115.195 105.649C115.195 105.352 115.254 105.249 115.508 105.249C117.559 105.2 121.504 105.103 125.313 105.103C135.41 105.103 138.926 110.708 138.926 116.162C138.926 124.273 132.676 127.725 124.961 127.725H122.109V137.583C122.109 137.832 122.012 137.983 121.699 137.983H115.547C115.293 137.983 115.195 137.832 115.195 137.583V105.649ZM122.109 121.567C122.949 121.616 123.516 121.616 124.902 121.616C128.867 121.616 132.012 120.415 132.012 116.314C132.012 113.159 129.863 111.157 125.508 111.157C123.906 111.157 122.559 111.206 122.11 111.255L122.109 121.567Z" fill="#FA0F00"/>
<path d="M154.297 36.3379L129.082 10.791C125.411 7.07031 120.303 4.94141 115.059 4.94141H42.1C29.8442 5.13671 19.932 15.2441 20.0004 27.4414V152.393C19.932 164.668 29.8539 174.775 42.2172 174.941H137.959C150.225 174.775 160.147 164.668 160.078 152.441V50.498C160.108 45.2441 157.998 40.0879 154.297 36.3379ZM115.059 19.9414C116.319 19.9414 117.539 20.4492 118.409 21.3281L143.623 46.875C144.462 47.7319 144.922 48.8794 145.006 50.0781H115.01V19.9414H115.059ZM137.862 159.941H42.3149C38.2622 159.893 34.9809 156.543 35.0004 152.441V27.3926C34.9809 23.3496 38.2621 20 42.2172 19.9414H100.01V57.5781C100.01 61.7187 103.37 65.0781 107.51 65.0781H145.079V152.49C145.098 156.543 141.817 159.893 137.862 159.941Z" fill="#222222"/>
</svg>
