<svg width="180" height="180" viewBox="0 0 180 180" fill="none" xmlns="http://www.w3.org/2000/svg">
<path d="M71.6211 125.22C71.2695 125.22 71.1719 125.073 71.1719 124.771V119.614C71.1719 119.365 71.3184 119.316 71.5723 119.316H83.0762C83.4766 119.316 83.5352 119.414 83.5352 119.717V136.284C83.584 136.582 83.4766 136.685 83.1836 136.782C79.5313 138.081 76.0254 138.481 73.0664 138.481C61.2109 138.481 55.4492 130.977 55.4492 121.816C55.4492 111.46 62.8613 104.702 74.1211 104.702C77.4219 104.702 80.4297 105.054 82.2266 105.903C82.4805 105.952 82.5782 106.152 82.5782 106.553V112.007C82.5782 112.358 82.3829 112.456 82.129 112.31C79.922 111.206 77.3243 110.908 74.3165 110.854C66.5138 110.757 62.6075 114.858 62.6075 121.616C62.6075 127.725 66.3087 132.427 73.418 132.427C74.8731 132.427 75.7227 132.329 76.5723 132.075V125.473L71.6211 125.22Z" fill="#FA0F00"/>
<path d="M96.8066 137.534C96.8066 137.832 96.7089 137.983 96.3574 137.983H90.2539C89.9512 137.983 89.8535 137.832 89.8535 137.534V105.649C89.8535 105.249 90 105.2 90.2539 105.2H96.3574C96.6601 105.2 96.8066 105.303 96.8066 105.649V137.534Z" fill="#FA0F00"/>
<path d="M110.957 137.534C110.957 137.832 110.811 137.983 110.508 137.983H104.356C104.102 137.983 104.004 137.832 104.004 137.534V105.601C104.004 105.303 104.102 105.2 104.356 105.2H124.17C124.522 105.2 124.629 105.303 124.678 105.649L125.225 111.006C125.274 111.309 125.127 111.46 124.776 111.46H110.957V119.067H123.418C123.721 119.067 123.828 119.165 123.828 119.468V124.922C123.828 125.22 123.721 125.322 123.477 125.322H110.957L110.957 137.534Z" fill="#FA0F00"/>
<path d="M154.297 36.3379L129.082 10.791C125.411 7.07031 120.303 4.94141 115.059 4.94141H42.1C29.8442 5.13671 19.932 15.2441 20.0004 27.4414V152.393C19.932 164.668 29.8539 174.775 42.2172 174.941H137.959C150.225 174.775 160.147 164.668 160.078 152.441V50.498C160.108 45.2441 157.998 40.0879 154.297 36.3379ZM115.059 19.9414C116.319 19.9414 117.539 20.4492 118.409 21.3281L143.623 46.875C144.462 47.7319 144.922 48.8794 145.006 50.0781H115.01V19.9414H115.059ZM137.862 159.941H42.3149C38.2622 159.893 34.9809 156.543 35.0004 152.441V27.3926C34.9809 23.3496 38.2621 20 42.2172 19.9414H100.01V57.5781C100.01 61.7187 103.37 65.0781 107.51 65.0781H145.079V152.49C145.098 156.543 141.817 159.893 137.862 159.941Z" fill="#222222"/>
</svg>
