<svg width="180" height="180" viewBox="0 0 180 180" fill="none" xmlns="http://www.w3.org/2000/svg">
<path fill-rule="evenodd" clip-rule="evenodd" d="M137.5 90C144.404 90 150 84.4036 150 77.5C150 70.5964 144.404 65 137.5 65C130.596 65 125 70.5964 125 77.5C125 84.4036 130.596 90 137.5 90Z" fill="#FA0F00"/>
<path d="M15.0039 129.944H5.00391C2.24241 129.944 0.00390625 127.705 0.00390625 124.944V22.5027C0.00390625 15.5991 5.60031 10.0027 12.5039 10.0027H145.18C147.941 10.0027 150.18 12.2413 150.18 15.0027V25.0027H15.0039V129.944Z" fill="#222222"/>
<path d="M167.5 40H42.5C35.6055 40 30 45.6055 30 52.5V147.5C30 154.395 35.6055 160 42.5 160H167.5C174.395 160 180 154.395 180 147.5V52.5C180 45.6055 174.395 40 167.5 40ZM165 55V120.185L151.309 106.738C146.66 102.187 139.414 101.933 134.453 106.152L120.703 117.861L85.4785 85.6543C80.5859 81.1816 73.0371 81.3184 68.291 85.9668L45 108.811V55H165ZM45 145V129.819L77.1094 98.33L112.207 130.41C116.855 134.658 123.965 134.795 128.75 130.713L142.442 119.053L164.424 140.644L165 140.058V145L45 145Z" fill="#222222"/>
</svg>
