<svg width="180" height="180" viewBox="0 0 180 180" fill="none" xmlns="http://www.w3.org/2000/svg">
<path d="M42.2073 175C29.8538 174.824 19.9417 164.717 20.0003 152.466V27.5C19.9417 15.2832 29.8538 5.1758 42.0999 5H115.02C120.254 5 125.352 7.1289 129.033 10.8447L154.219 36.3965C157.959 40.1563 160.02 45.1807 160 50.5225V152.5C160.059 164.717 150.147 174.824 137.91 175H42.2073ZM42.2073 20C38.262 20.0586 34.9807 23.4082 35.0003 27.4658V152.5C34.9808 156.592 38.262 159.941 42.3148 160H137.803C141.739 159.941 145.02 156.592 145 152.534V50.498C145 49.1406 144.493 47.8857 143.555 46.9482L118.36 21.3818C117.491 20.5078 116.28 20 115.03 20H42.2073Z" fill="#222222"/>
<path d="M72.6095 64.9316H55.9375V124.999H72.6095V64.9316Z" fill="#FA0F00"/>
<path d="M108.38 62.9443V77.6451C107.305 77.4652 105.512 77.2857 103.809 77.2857C91.1675 77.2857 78.975 85.4446 78.9746 101.76C78.9746 117.897 90.9871 125.698 104.793 125.698C112.862 125.698 120.304 123.725 124.068 121.842V62.9444L108.38 62.9443ZM108.38 112.609C107.215 112.878 105.512 112.968 104.255 112.968C98.7874 112.968 94.6629 109.381 94.6629 101.492C94.6629 92.8858 99.2335 90.0186 104.164 90.0186C105.958 90.0186 107.304 90.2843 108.38 90.6431V112.609Z" fill="#FA0F00"/>
</svg>
