<svg width="180" height="180" viewBox="0 0 180 180" fill="none" xmlns="http://www.w3.org/2000/svg">
<path d="M42.2073 175C29.8538 174.824 19.9417 164.717 20.0003 152.466V27.5C19.9417 15.2832 29.8538 5.1758 42.0999 5H115.02C120.254 5 125.352 7.1289 129.033 10.8447L154.219 36.3965C157.959 40.1563 160.02 45.1807 160 50.5225V152.5C160.059 164.717 150.147 174.824 137.91 175H42.2073ZM42.2073 20C38.262 20.0586 34.9807 23.4082 35.0003 27.4658V152.5C34.9808 156.592 38.262 159.941 42.3148 160H137.803C141.739 159.941 145.02 156.592 145 152.534V50.498C145 49.1406 144.493 47.8857 143.555 46.9482L118.36 21.3818C117.481 20.5029 115.821 19.8584 115 20H42.2073Z" fill="#222222"/>
<path d="M70.9626 65C87.9773 65 97.5596 72.9701 97.5596 86.3133C97.5596 101.896 84.5745 108.164 72.3954 108.164H64.1566V125H47.5V65H70.9626ZM64.1568 79.2389V93.9255H71.4995C76.6042 93.9255 80.1864 91.8657 80.1864 86.6717C80.1864 81.9254 77.1415 79.2389 71.8579 79.2389H64.1568Z" fill="#FA0F00"/>
<path d="M100.954 121.93L101.043 108.047C105.791 111.181 112.419 113.152 116.987 113.152C120.122 113.152 121.555 112.256 121.555 110.644C121.555 108.853 119.584 108.136 115.822 106.972C108.567 104.822 100.596 101.866 100.596 92.372C100.596 82.6986 108.567 77.3242 120.122 77.3242C125.586 77.3242 130.064 78.1304 134.005 79.8322L133.915 93.0885C130.781 91.2077 124.6 89.5056 120.57 89.5056C117.614 89.5056 116.449 90.4015 116.449 91.7448C116.449 93.3572 117.882 93.805 122.182 95.1483C130.512 97.6563 137.499 100.343 137.499 110.106C137.499 119.422 129.885 125.692 117.972 125.692C111.702 125.692 105.791 124.617 100.954 121.93Z" fill="#FA0F00"/>
</svg>
