<svg width="180" height="180" viewBox="0 0 180 180" fill="none" xmlns="http://www.w3.org/2000/svg">
<path d="M55.4266 111.46H45.5633C45.2606 111.46 45.2117 111.308 45.2606 111.006L45.9637 105.649C46.0125 105.303 46.1102 105.2 46.4617 105.2H71.491C71.8426 105.2 71.989 105.352 72.0379 105.649L72.5359 110.957C72.5945 111.309 72.4382 111.46 72.1453 111.46H62.3797V137.485C62.3797 137.832 62.1844 137.983 61.9305 137.983H55.9246C55.573 138.032 55.4266 137.832 55.4266 137.534V111.46Z" fill="#FA0F00"/>
<path d="M82.4219 137.534C82.4219 137.832 82.3242 137.983 81.9727 137.983H75.8692C75.5665 137.983 75.4688 137.832 75.4688 137.534V105.649C75.4688 105.249 75.6153 105.2 75.8692 105.2H81.9727C82.2754 105.2 82.4219 105.303 82.4219 105.649V137.534Z" fill="#FA0F00"/>
<path d="M95.7715 137.534C95.7715 137.832 95.625 137.983 95.3223 137.983H89.17C88.9161 137.983 88.8184 137.832 88.8184 137.534V105.601C88.8184 105.303 88.9161 105.2 89.17 105.2H108.984C109.336 105.2 109.434 105.303 109.492 105.649L110.039 111.006C110.088 111.309 109.941 111.46 109.59 111.46H95.7716V119.067H108.242C108.535 119.067 108.633 119.165 108.633 119.468V124.922C108.633 125.22 108.535 125.322 108.291 125.322H95.7716L95.7715 137.534Z" fill="#FA0F00"/>
<path d="M120.674 137.534C120.674 137.832 120.527 137.983 120.225 137.983H114.072C113.818 137.983 113.721 137.832 113.721 137.534V105.601C113.721 105.303 113.818 105.2 114.072 105.2H133.887C134.238 105.2 134.336 105.303 134.395 105.649L134.942 111.006C134.99 111.309 134.844 111.46 134.492 111.46H120.674V119.067H133.145C133.438 119.067 133.535 119.165 133.535 119.468V124.922C133.535 125.22 133.437 125.322 133.193 125.322H120.674L120.674 137.534Z" fill="#FA0F00"/>
<path d="M154.297 36.3379L129.082 10.791C125.411 7.07031 120.303 4.94141 115.059 4.94141H42.1C29.8442 5.13671 19.932 15.2441 20.0004 27.4414V152.393C19.932 164.668 29.8539 174.775 42.2172 174.941H137.959C150.225 174.775 160.147 164.668 160.078 152.441V50.498C160.108 45.2441 157.998 40.0879 154.297 36.3379ZM115.059 19.9414C116.319 19.9414 117.539 20.4492 118.409 21.3281L143.623 46.875C144.462 47.7319 144.922 48.8794 145.006 50.0781H115.01V19.9414H115.059ZM137.862 159.941H42.3149C38.2622 159.893 34.9809 156.543 35.0004 152.441V27.3926C34.9809 23.3496 38.2621 20 42.2172 19.9414H100.01V57.5781C100.01 61.7187 103.37 65.0781 107.51 65.0781H145.079V152.49C145.098 156.543 141.817 159.893 137.862 159.941Z" fill="#222222"/>
</svg>
